<svg width="48" height="48" viewBox="0 0 48 48" fill="none" xmlns="http://www.w3.org/2000/svg">
<circle cx="24" cy="24" r="24" fill="#132957"/>
<path d="M26.771 23.45C26.771 24.121 26.276 24.671 25.649 24.671C25.033 24.671 24.527 24.121 24.527 23.45C24.527 22.779 25.022 22.229 25.649 22.229C26.276 22.229 26.771 22.779 26.771 23.45ZM21.634 22.229C21.007 22.229 20.512 22.779 20.512 23.45C20.512 24.121 21.018 24.671 21.634 24.671C22.261 24.671 22.756 24.121 22.756 23.45C22.767 22.779 22.261 22.229 21.634 22.229ZM33.25 15.266V35C30.4788 32.551 31.365 33.3617 28.146 30.369L28.729 32.404H16.255C15.012 32.404 14 31.392 14 30.138V15.266C14 14.012 15.012 13 16.255 13H30.995C32.238 13 33.25 14.012 33.25 15.266ZM30.115 25.694C30.115 22.152 28.531 19.281 28.531 19.281C26.947 18.093 25.44 18.126 25.44 18.126L25.286 18.302C27.156 18.874 28.025 19.699 28.025 19.699C25.412 18.2669 22.3426 18.2666 19.808 19.38C19.401 19.567 19.159 19.699 19.159 19.699C19.159 19.699 20.072 18.83 22.052 18.258L21.942 18.126C21.942 18.126 20.435 18.093 18.851 19.281C18.851 19.281 17.267 22.152 17.267 25.694C17.267 25.694 18.191 27.289 20.622 27.366C20.622 27.366 21.029 26.871 21.359 26.453C19.962 26.035 19.434 25.155 19.434 25.155C19.5958 25.2683 19.8627 25.4151 19.885 25.43C21.7417 26.4698 24.379 26.8104 26.749 25.815C27.134 25.672 27.563 25.463 28.014 25.166C28.014 25.166 27.464 26.068 26.023 26.475C26.353 26.893 26.749 27.366 26.749 27.366C29.18 27.289 30.115 25.694 30.115 25.694Z" fill="white"/>
</svg>
