<svg width="48" height="48" viewBox="0 0 48 48" fill="none" xmlns="http://www.w3.org/2000/svg">
<circle cx="24" cy="24" r="24" fill="#132957"/>
<path d="M35 24.0669C35 17.9533 30.0766 13 24 13C17.9234 13 13 17.9533 13 24.0669C13 29.6004 16.9919 34.1968 22.2702 35V27.2799H19.4758V24.0669H22.2702V21.6572C22.2702 18.8905 23.9113 17.3286 26.3952 17.3286C27.6371 17.3286 28.879 17.5517 28.879 17.5517V20.2738H27.504C26.129 20.2738 25.6855 21.1217 25.6855 22.0142V24.0669H28.746L28.2581 27.2799H25.6855V35C30.9637 34.1968 35 29.6004 35 24.0669Z" fill="#F5F4FA"/>
</svg>
