<svg width="48" height="48" viewBox="0 0 48 48" fill="none" xmlns="http://www.w3.org/2000/svg">
<circle cx="24" cy="24" r="24" fill="#132957"/>
<path d="M19.6512 30.7158C19.6512 30.625 19.5585 30.5341 19.4194 30.5341C19.2802 30.5341 19.1875 30.625 19.1875 30.7158C19.1875 30.8067 19.2802 30.8975 19.4194 30.8521C19.5585 30.8521 19.6512 30.8067 19.6512 30.7158ZM18.2137 30.4887C18.2137 30.5795 18.3065 30.7158 18.4456 30.7158C18.5383 30.7612 18.6774 30.7158 18.7238 30.625C18.7238 30.5341 18.6774 30.4433 18.5383 30.3978C18.3992 30.3524 18.2601 30.3978 18.2137 30.4887ZM20.3004 30.4433C20.1613 30.4433 20.0685 30.5341 20.0685 30.6704C20.0685 30.7612 20.2077 30.8067 20.3468 30.7612C20.4859 30.7158 20.5786 30.6704 20.5323 30.5795C20.5323 30.4887 20.3931 30.3978 20.3004 30.4433ZM23.3145 13C16.9153 13 12 17.8151 12 24.0837C12 29.1259 15.1996 33.4413 19.8367 34.9858C20.4395 35.0766 20.625 34.7132 20.625 34.4407C20.625 34.1227 20.625 32.5782 20.625 31.6243C20.625 31.6243 17.379 32.3057 16.6835 30.2616C16.6835 30.2616 16.1734 28.9442 15.4315 28.6263C15.4315 28.6263 14.3649 27.8994 15.4778 27.8994C15.4778 27.8994 16.6371 27.9903 17.2863 29.0805C18.3065 30.8521 19.9758 30.3524 20.6714 30.0344C20.7641 29.3076 21.0423 28.808 21.4133 28.49C18.8165 28.2174 16.1734 27.854 16.1734 23.4932C16.1734 22.2213 16.5444 21.6308 17.2863 20.8131C17.1472 20.4951 16.7762 19.3141 17.4254 17.7242C18.3528 17.4517 20.625 18.9507 20.625 18.9507C21.5524 18.6781 22.5262 18.5873 23.5 18.5873C24.5202 18.5873 25.494 18.6781 26.4214 18.9507C26.4214 18.9507 28.6472 17.4062 29.621 17.7242C30.2702 19.3141 29.8528 20.4951 29.7601 20.8131C30.502 21.6308 30.9657 22.2213 30.9657 23.4932C30.9657 27.854 28.2298 28.2174 25.6331 28.49C26.0504 28.8534 26.4214 29.5348 26.4214 30.625C26.4214 32.124 26.375 34.0318 26.375 34.3952C26.375 34.7132 26.6069 35.0766 27.2097 34.9403C31.8468 33.4413 35 29.1259 35 24.0837C35 17.8151 29.7601 13 23.3145 13ZM16.498 28.6717C16.4052 28.7171 16.4516 28.8534 16.498 28.9442C16.5907 28.9897 16.6835 29.0351 16.7762 28.9897C16.8226 28.9442 16.8226 28.808 16.7298 28.7171C16.6371 28.6717 16.5444 28.6263 16.498 28.6717ZM15.9879 28.3083C15.9415 28.3991 15.9879 28.4446 16.0806 28.49C16.1734 28.5354 16.2661 28.5354 16.3125 28.4446C16.3125 28.3991 16.2661 28.3537 16.1734 28.3083C16.0806 28.2628 16.0343 28.2628 15.9879 28.3083ZM17.4718 29.9436C17.4254 29.989 17.4254 30.1253 17.5645 30.2161C17.6573 30.307 17.7964 30.3524 17.8427 30.2616C17.8891 30.2161 17.8891 30.0799 17.7964 29.989C17.7036 29.8982 17.5645 29.8527 17.4718 29.9436ZM16.9617 29.2622C16.869 29.3076 16.869 29.4439 16.9617 29.5348C17.0544 29.6256 17.1472 29.671 17.2399 29.6256C17.2863 29.5802 17.2863 29.4439 17.2399 29.3531C17.1472 29.2622 17.0544 29.2168 16.9617 29.2622Z" fill="#F5F4FA"/>
</svg>
