<svg width="48" height="48" viewBox="0 0 48 48" fill="none" xmlns="http://www.w3.org/2000/svg">
<circle cx="24" cy="24" r="24" fill="#132957"/>
<path d="M23.625 18.8086C20.875 18.8086 18.6836 21.043 18.6836 23.75C18.6836 26.5 20.875 28.6914 23.625 28.6914C26.332 28.6914 28.5664 26.5 28.5664 23.75C28.5664 21.043 26.332 18.8086 23.625 18.8086ZM23.625 26.9727C21.8633 26.9727 20.4023 25.5547 20.4023 23.75C20.4023 21.9883 21.8203 20.5703 23.625 20.5703C25.3867 20.5703 26.8047 21.9883 26.8047 23.75C26.8047 25.5547 25.3867 26.9727 23.625 26.9727ZM29.8984 18.6367C29.8984 17.9922 29.3828 17.4766 28.7383 17.4766C28.0938 17.4766 27.5781 17.9922 27.5781 18.6367C27.5781 19.2812 28.0938 19.7969 28.7383 19.7969C29.3828 19.7969 29.8984 19.2812 29.8984 18.6367ZM33.1641 19.7969C33.0781 18.25 32.7344 16.875 31.6172 15.7578C30.5 14.6406 29.125 14.2969 27.5781 14.2109C25.9883 14.125 21.2188 14.125 19.6289 14.2109C18.082 14.2969 16.75 14.6406 15.5898 15.7578C14.4727 16.875 14.1289 18.25 14.043 19.7969C13.957 21.3867 13.957 26.1562 14.043 27.7461C14.1289 29.293 14.4727 30.625 15.5898 31.7852C16.75 32.9023 18.082 33.2461 19.6289 33.332C21.2188 33.418 25.9883 33.418 27.5781 33.332C29.125 33.2461 30.5 32.9023 31.6172 31.7852C32.7344 30.625 33.0781 29.293 33.1641 27.7461C33.25 26.1562 33.25 21.3867 33.1641 19.7969ZM31.1016 29.4219C30.8008 30.2812 30.1133 30.9258 29.2969 31.2695C28.0078 31.7852 25 31.6562 23.625 31.6562C22.207 31.6562 19.1992 31.7852 17.9531 31.2695C17.0938 30.9258 16.4492 30.2812 16.1055 29.4219C15.5898 28.1758 15.7188 25.168 15.7188 23.75C15.7188 22.375 15.5898 19.3672 16.1055 18.0781C16.4492 17.2617 17.0938 16.6172 17.9531 16.2734C19.1992 15.7578 22.207 15.8867 23.625 15.8867C25 15.8867 28.0078 15.7578 29.2969 16.2734C30.1133 16.5742 30.7578 17.2617 31.1016 18.0781C31.6172 19.3672 31.4883 22.375 31.4883 23.75C31.4883 25.168 31.6172 28.1758 31.1016 29.4219Z" fill="white"/>
</svg>
