<svg width="32" height="32" viewBox="0 0 32 32" fill="none" xmlns="http://www.w3.org/2000/svg">
<circle cx="16" cy="16" r="16" fill="#132957"/>
<path d="M21.0714 9H9.89955C9.40625 9 9 9.43527 9 9.95759V21.0714C9 21.5938 9.40625 22 9.89955 22H21.0714C21.5647 22 22 21.5938 22 21.0714V9.95759C22 9.43527 21.5647 9 21.0714 9ZM12.9174 20.1429H11.0022V13.9621H12.9174V20.1429ZM11.9598 13.0915C11.3214 13.0915 10.8281 12.5982 10.8281 11.9888C10.8281 11.3795 11.3214 10.8571 11.9598 10.8571C12.5692 10.8571 13.0625 11.3795 13.0625 11.9888C13.0625 12.5982 12.5692 13.0915 11.9598 13.0915ZM20.1429 20.1429H18.1987V17.125C18.1987 16.4286 18.1987 15.5 17.2121 15.5C16.1964 15.5 16.0513 16.2835 16.0513 17.096V20.1429H14.1362V13.9621H15.9643V14.8036H15.9933C16.2545 14.3103 16.8929 13.7879 17.8214 13.7879C19.7656 13.7879 20.1429 15.0938 20.1429 16.7478V20.1429Z" fill="#F5F4FA"/>
</svg>
