<svg width="32" height="32" viewBox="0 0 32 32" fill="none" xmlns="http://www.w3.org/2000/svg">
<circle cx="16" cy="16" r="16" fill="#132957"/>
<path d="M23.649 12.4057C23.4735 11.7215 22.9177 11.1798 22.245 11.0087C20.9872 10.6666 16.0146 10.6666 16.0146 10.6666C16.0146 10.6666 11.0128 10.6666 9.75503 11.0087C9.08227 11.1798 8.52651 11.7215 8.35101 12.4057C8 13.603 8 16.1688 8 16.1688C8 16.1688 8 18.7061 8.35101 19.932C8.52651 20.6162 9.08227 21.1293 9.75503 21.3004C11.0128 21.614 16.0146 21.614 16.0146 21.614C16.0146 21.614 20.9872 21.614 22.245 21.3004C22.9177 21.1293 23.4735 20.6162 23.649 19.932C24 18.7061 24 16.1688 24 16.1688C24 16.1688 24 13.603 23.649 12.4057ZM14.3766 18.478V13.8596L18.5302 16.1688L14.3766 18.478Z" fill="white"/>
</svg>
