<svg width="56" height="26" viewBox="0 0 56 26" fill="none" xmlns="http://www.w3.org/2000/svg">
<path d="M56 7.63303V5.46239C56 4.03119 55.4182 2.64771 54.3758 1.64587C53.3818 0.59633 51.9758 0 50.5212 0H35.103C33.6485 0 32.2424 0.59633 31.2242 1.62202C30.1576 2.62385 29.5758 4.00734 29.5758 5.46239V10.5431C29.6242 13.5248 32.0727 15.9339 35.103 15.9817H50.4242V20.2752H25.697V5.46239C25.697 4.00734 25.2606 2.67156 24.2182 1.64587C23.1758 0.620183 22.0121 0 20.5333 0H5.11515C3.61212 0 2.47273 0.59633 1.4303 1.62202C0.387879 2.64771 0 3.98349 0 5.46239V20.633C0 22.1119 0.387879 23.4 1.4303 24.4257C2.47273 25.4514 3.61212 26 5.11515 26H50.5212C53.5273 25.9523 55.9515 23.5908 56 20.633V15.5523C56 14.145 55.4182 12.7853 54.3758 11.8073C53.3576 10.8055 51.9758 10.233 50.5212 10.2569H35.1515V5.72477H50.4242V7.63303H56ZM20.8485 10.7339C20.8485 10.7817 20.8242 10.8294 20.8242 10.8532C20.8 10.8532 20.7758 10.9725 20.7758 10.9725C20.7758 10.9725 20.7758 10.8771 20.7515 10.8771C20.7273 10.8771 20.7515 10.8294 20.7515 10.8294C20.7515 10.8294 20.7273 10.8055 20.7273 10.8294C20.7273 10.8532 20.7273 10.8771 20.7273 10.8771C20.7273 10.9486 20.7273 11.0202 20.6788 11.0917C20.6545 11.1156 20.6303 11.1633 20.6303 11.1872C20.6303 11.2349 20.6061 11.2826 20.5576 11.3064C20.5333 11.3303 20.5091 11.378 20.5091 11.4018C20.5091 11.4495 20.4848 11.4734 20.4606 11.4972C20.4121 11.545 20.3879 11.6165 20.3636 11.6881C20.3394 11.7835 20.2909 11.9028 20.2424 11.9743C20.2182 11.9982 20.1939 12.0459 20.1939 12.0697C20.0485 12.2844 19.903 12.4514 19.7091 12.6183L19.6364 12.7138C19.5879 12.7615 19.5152 12.8092 19.4424 12.8569H19.4182C19.3212 12.9046 19.2485 12.9761 19.1515 13.0477L19.1273 13.0716C19.0303 13.1431 18.9576 13.2147 18.8848 13.3101C18.8606 13.3339 18.8364 13.3578 18.8121 13.3817L18.7636 13.4294C18.7152 13.4771 18.6909 13.5009 18.6667 13.5486C18.6424 13.5725 18.6424 13.5963 18.6182 13.6202C18.5939 13.6679 18.5697 13.6917 18.5455 13.7156L18.5212 13.7394C18.497 13.7872 18.4485 13.811 18.3758 13.811C18.3515 13.9064 18.3273 13.9303 18.2303 13.9541C18.2061 13.9541 18.2061 13.9541 18.2061 13.978C18.2061 14.0495 18.1818 14.0972 18.1576 14.145C18.1333 14.1688 18.1333 14.2165 18.1091 14.2404C18.0848 14.2642 18.0848 14.3119 18.0606 14.3358C18.0606 14.3596 18.0364 14.3835 18.0121 14.4073C17.9879 14.4312 17.9636 14.4789 17.9636 14.5266C17.9394 14.5743 17.9152 14.622 17.8909 14.6697V14.6936C17.8909 14.7174 17.8909 14.7174 17.8909 14.7413V14.7651C17.8909 14.7651 17.8909 14.789 17.9152 14.8128C17.9394 14.8367 17.9636 14.8606 17.9879 14.8844V14.9083C18.0121 14.9083 18.0364 14.9321 18.0364 14.956C18.0364 14.9798 18.0364 15.0275 18.0121 15.0514C17.9879 15.0991 17.9636 15.0991 17.9879 15.1468C18.0121 15.1945 18.0121 15.2183 17.9879 15.2661C17.9636 15.2899 17.9636 15.3615 17.9879 15.3853C18.0121 15.433 18.0364 15.4807 18.0364 15.5523C18.0364 15.5761 18.0606 15.6239 18.0606 15.6477C18.0606 15.6716 18.0848 15.6954 18.1091 15.7193C18.2061 15.767 18.2303 15.7908 18.2061 15.9101C18.2303 15.9101 18.2545 15.9339 18.2303 15.9817C18.2303 16.0055 18.2303 15.9817 18.2303 16.0055C18.2303 16.0294 18.2061 16.0055 18.1818 16.0055V15.9817C18.1818 16.0294 18.1818 16.0771 18.1818 16.1486C18.1818 16.1963 18.2061 16.244 18.2061 16.2917C18.2061 16.3156 18.1818 16.3633 18.1576 16.3633C18.1576 16.3872 18.1818 16.411 18.1818 16.4349C18.1818 16.4587 18.1818 16.4826 18.1818 16.5064V16.5303C18.1818 16.5541 18.1818 16.6018 18.2061 16.6257C18.2303 16.6734 18.2303 16.7211 18.2303 16.7688C18.2303 16.7927 18.2303 16.8165 18.2061 16.8165V16.8404C18.1818 16.9358 18.1091 17.0312 18.0364 17.1028L18.0121 17.1266C17.9636 17.1982 17.8909 17.2459 17.8182 17.2936C17.7455 17.3413 17.6727 17.3651 17.5758 17.3651H17.5515C17.5273 17.3651 17.503 17.389 17.4788 17.4128L17.4303 17.4367C17.3333 17.4844 17.2606 17.5798 17.1879 17.6514L17.1636 17.6752L17.2121 17.6991C17.1879 17.7468 17.1394 17.7706 17.0909 17.7706C17.0667 17.7706 17.0424 17.7945 17.0182 17.8183L16.9697 17.8899C16.9455 17.9376 16.897 17.9853 16.8485 18.0092C16.8 18.033 16.8 18.033 16.8 18.0807C16.8 18.1284 16.8 18.1284 16.8242 18.1523C16.8727 18.1761 16.8727 18.2239 16.8727 18.2716C16.8727 18.2954 16.8727 18.3193 16.897 18.3431C16.897 18.3193 16.9212 18.3193 16.9455 18.3193C16.9697 18.3193 16.9939 18.3431 16.9697 18.3908C16.9697 18.3908 16.9697 18.3908 16.9697 18.4147C16.9697 18.4385 16.9697 18.4862 16.9212 18.4862C16.9939 18.5101 16.9697 18.5578 16.9697 18.5817V18.6055C16.9697 18.6294 16.9455 18.6532 16.9697 18.6771C16.9939 18.7009 16.9697 18.7248 16.9697 18.7248C16.9212 18.7963 16.9212 18.8679 16.9212 18.9394C16.9212 18.9872 16.9212 19.011 16.897 19.0349L16.8485 19.0826C16.8 19.1303 16.7515 19.178 16.6788 19.2018C16.5576 19.2257 16.4364 19.2734 16.3394 19.3211C16.3152 19.3211 16.2909 19.345 16.2667 19.3688V19.4165C16.2667 19.4642 16.2667 19.5119 16.2667 19.5358C16.2667 19.5596 16.2667 19.5596 16.2667 19.5835C16.2667 19.655 16.2424 19.7266 16.2182 19.7982C16.1939 19.8459 16.1939 19.8936 16.1697 19.9413C16.1455 20.0367 16.097 20.1083 16.0242 20.1321C16 20.156 15.9515 20.1798 15.9273 20.2037L15.903 20.2275C15.8545 20.2752 15.8303 20.3229 15.8061 20.3706C15.7818 20.3945 15.7818 20.4183 15.7576 20.4422C15.7576 20.4422 15.7333 20.4661 15.7333 20.4899C15.6606 20.6092 15.5636 20.7046 15.4424 20.8C15.4182 20.8239 15.3939 20.8477 15.3697 20.8716C15.3212 20.9431 15.2485 20.9908 15.1758 21.0385L15.103 21.0862C15.0545 21.1339 14.9818 21.1817 14.9091 21.2055H14.8848C14.8121 21.2532 14.7152 21.2771 14.6424 21.2532H14.6182C14.6182 21.2532 14.5939 21.2771 14.6182 21.2771V21.3009H14.5939C14.5939 21.3009 14.5939 21.3009 14.5697 21.3009C14.5455 21.3009 14.5455 21.3009 14.5212 21.3009C14.4727 21.2771 14.4485 21.2771 14.4485 21.3248L14.4242 21.3486C14.4 21.3486 14.3758 21.3486 14.3515 21.3486C14.3273 21.3248 14.2788 21.3248 14.2303 21.3248C14.2061 21.3248 14.1818 21.3248 14.1576 21.3009H14.1333C14.1091 21.3009 14.1091 21.3248 14.0848 21.3248C14.0606 21.3248 14.0364 21.3248 14.0121 21.3248C13.9879 21.3248 13.9636 21.3248 13.9394 21.3248C13.9152 21.3248 13.8909 21.3248 13.8667 21.3486C13.8182 21.3963 13.7697 21.4202 13.697 21.3963H13.6485C13.6 21.3963 13.5515 21.4202 13.503 21.444C13.4788 21.4679 13.4303 21.4917 13.3818 21.4917C13.3333 21.4917 13.2848 21.4679 13.2606 21.444C13.2364 21.444 13.2364 21.4202 13.2364 21.4202C13.2364 21.3963 13.2121 21.3963 13.2121 21.3963C13.1879 21.3963 13.1636 21.3725 13.1394 21.3486C13.1394 21.3725 13.1152 21.3725 13.1152 21.3725H13.0909C13.0667 21.3725 13.0667 21.3486 13.0667 21.3248C13.0667 21.3009 13.0424 21.3486 13.0424 21.3486C13.0424 21.3486 13.0424 21.444 13.0182 21.444C13.0182 21.444 12.9939 21.3009 12.9939 21.2771C12.9939 21.2532 12.9939 21.2055 12.9939 21.1817C12.9939 21.1578 12.9939 21.1339 12.9697 21.1101C12.9455 21.0862 12.9455 21.0385 12.9455 21.0147V20.9908C12.9455 20.967 12.9455 20.9431 12.9697 20.9193C12.9939 20.9193 12.9939 20.9193 13.0182 20.9193H13.0424C13.0424 20.9193 13.0424 20.9193 13.0424 20.8954C13.0424 20.8239 13.0182 20.7523 12.9697 20.6807C12.897 20.5853 12.8242 20.4899 12.8 20.3706L12.7758 20.3229C12.7273 20.2275 12.6788 20.1321 12.6061 20.0606C12.4848 19.989 12.4121 19.8697 12.3394 19.7505V19.7266C12.2909 19.6789 12.2909 19.6073 12.2909 19.5358C12.2424 19.4404 12.2182 19.345 12.2182 19.2257C12.2182 19.178 12.1939 19.1303 12.1697 19.0826V19.0587C12.1455 19.011 12.1212 18.9394 12.1455 18.8679C12.1455 18.844 12.1455 18.7963 12.1455 18.7725V18.7248C12.1455 18.7009 12.1455 18.7009 12.1455 18.6771C12.1939 18.5817 12.1455 18.5339 12.0727 18.4624C12.0242 18.4147 12 18.367 11.9515 18.2954L11.8788 18.2716C11.8303 18.2 11.8061 18.1284 11.7576 18.033C11.7091 17.9376 11.6606 17.8422 11.5879 17.7468L11.5636 17.7229C11.4909 17.6514 11.4182 17.556 11.4182 17.4367C11.4182 17.4128 11.4182 17.389 11.4182 17.3651C11.4424 17.3174 11.4424 17.2697 11.4182 17.222C11.3939 17.1982 11.3939 17.1505 11.4182 17.1505C11.4182 17.1505 11.4182 17.1505 11.4424 17.1505C11.4424 17.1266 11.4424 17.1266 11.4424 17.1028V17.0789C11.4424 17.0789 11.4424 17.0789 11.4424 17.055C11.4182 17.0073 11.4424 16.9596 11.4909 16.9596V16.9358C11.4909 16.8881 11.5152 16.8404 11.5394 16.7927C11.5636 16.7211 11.5636 16.6734 11.5879 16.6018C11.5879 16.578 11.5879 16.5541 11.6121 16.5303C11.6121 16.5064 11.6364 16.4826 11.6364 16.4587C11.6364 16.4349 11.6364 16.4349 11.6606 16.411L11.6848 16.3872C11.7091 16.3633 11.7333 16.3395 11.7333 16.3156C11.7333 16.2917 11.7333 16.2917 11.8061 16.244C11.8788 16.1963 11.9273 16.1248 11.9273 16.0294C11.9273 16.0055 11.9273 15.9817 11.9273 15.9578V15.9339C11.9273 15.8624 11.7333 15.8147 11.7091 15.767C11.6848 15.7193 11.903 15.6239 11.4182 15.5284C11.4182 15.5046 11.5636 15.4569 11.5636 15.433C11.5636 15.4092 11.6848 15.3376 11.7333 15.3376C11.7818 15.3376 11.903 15.2899 11.903 15.2899C11.8303 15.1945 11.903 15.0991 11.903 15.0037V14.956C11.903 14.9321 11.7576 14.9083 11.7333 14.8844C11.7091 14.8606 11.6364 14.8367 11.6121 14.8128C11.5879 14.789 11.5636 14.7651 11.5636 14.7651C11.5636 14.7413 11.5394 14.6936 11.5152 14.6697C11.4909 14.6459 11.4909 14.622 11.5152 14.5982C11.5152 14.5743 11.4909 14.5505 11.4667 14.5266C11.4424 14.5028 11.4424 14.4789 11.4182 14.455C11.4182 14.4312 11.3939 14.4073 11.3697 14.3835C11.3212 14.3358 11.2727 14.2642 11.2242 14.2165L11.103 14.0972C11.0788 14.0734 11.0545 14.0495 11.0303 14.0257C10.9818 14.0018 10.9576 13.978 10.9333 13.9303V13.9064C10.8848 13.8349 10.8364 13.7872 10.7879 13.6917C10.7636 13.6202 10.7394 13.5725 10.6909 13.5009C10.6667 13.4771 10.6667 13.4294 10.6667 13.4055V13.3817H10.6909C10.7152 13.3817 10.7394 13.3817 10.7636 13.3817C10.7879 13.3578 10.8121 13.3101 10.8121 13.2624C10.8121 13.2385 10.7394 13.2385 10.7394 13.2147C10.7394 13.1908 10.6667 13.2385 10.6667 13.2385V13.2147H10.7394C10.7394 13.1908 10.7636 13.167 10.7636 13.1431C10.7636 13.1193 10.8121 13.0954 10.8364 13.0954C10.8606 13.0954 10.8364 13.0716 10.8364 13.0477C10.8121 13.0477 10.8121 13.0239 10.7879 13.0239C10.7879 13 10.7879 12.9761 10.8121 12.9523L10.8606 12.8807L10.8848 12.833C10.8848 12.8092 10.8848 12.8092 10.8848 12.7853C10.8848 12.7138 10.8848 12.6422 10.9091 12.5706C10.9091 12.5468 10.9091 12.4991 10.8848 12.4991C10.8606 12.4752 10.8364 12.4275 10.8364 12.4037C10.7879 12.4037 10.7636 12.4037 10.7152 12.3798C10.6909 12.356 10.6667 12.3321 10.6667 12.3083V12.2844C10.6424 12.2844 10.6182 12.2844 10.5939 12.2844L10.5697 12.2606C10.5455 12.2844 10.5212 12.2844 10.497 12.2844H10.4727C10.4485 12.2844 10.4242 12.2844 10.4 12.3083C10.3758 12.3083 10.3515 12.3321 10.3273 12.3321C10.2788 12.3321 10.2545 12.3321 10.2061 12.356C10.1576 12.356 10.0848 12.356 10.0121 12.356C9.93939 12.3321 9.86667 12.2844 9.84242 12.2128C9.81818 12.1174 9.74545 11.9982 9.67273 11.9266C9.62424 11.8789 9.57576 11.855 9.50303 11.855C9.35758 11.855 9.18788 11.855 9.04242 11.8789H9.01818C8.99394 11.8789 8.9697 11.8789 8.94546 11.9028C8.92121 11.9028 8.89697 11.9266 8.84848 11.9266C8.84848 11.9266 8.84849 11.9266 8.82424 11.9505C8.82424 11.9982 8.8 12.022 8.75152 12.022C8.75152 12.022 8.75152 12.022 8.72727 12.022C8.6303 12.022 8.53333 12.0459 8.46061 12.0936C8.38788 12.1413 8.29091 12.1651 8.21818 12.1651C8.19394 12.1651 8.19394 12.189 8.1697 12.189C8.14546 12.2128 8.12121 12.2128 8.09697 12.2367C8.07273 12.2367 8.02424 12.2367 8 12.2128C7.95152 12.189 7.92727 12.1651 7.87879 12.1651C7.85455 12.1651 7.85455 12.1651 7.8303 12.1651H7.78182C7.70909 12.1413 7.63636 12.1413 7.56364 12.1413H7.44242C7.3697 12.1413 7.27273 12.1651 7.2 12.1651C7.17576 12.1651 7.12727 12.189 7.10303 12.2128C7.07879 12.2367 7.05455 12.2367 7.00606 12.2367C6.95758 12.2606 6.90909 12.2844 6.86061 12.3083L6.81212 12.3321C6.78788 12.356 6.73939 12.356 6.71515 12.3321C6.66667 12.3083 6.64242 12.2844 6.59394 12.2606C6.52121 12.2367 6.44848 12.189 6.37576 12.1413C6.32727 12.1174 6.27879 12.0697 6.25455 12.022C6.2303 11.9982 6.20606 11.9505 6.15758 11.9266L6.13333 11.9028C6.10909 11.8789 6.08485 11.855 6.03636 11.855C5.98788 11.855 5.96364 11.8073 5.96364 11.7835C5.89091 11.7596 5.84242 11.7119 5.79394 11.6642C5.7697 11.6165 5.72121 11.5927 5.67273 11.5927L5.62424 11.5688L5.57576 11.545C5.62424 11.4495 5.6 11.4495 5.57576 11.4495C5.55152 11.4495 5.52727 11.4018 5.52727 11.4018V11.378H5.55152H5.57576V11.3541V11.3303C5.57576 11.3303 5.55152 11.3303 5.52727 11.3303L5.47879 11.3541L5.50303 11.3064C5.52727 11.2826 5.50303 11.2587 5.50303 11.2587C5.50303 11.2349 5.50303 11.2349 5.50303 11.211C5.50303 11.211 5.50303 11.211 5.52727 11.1872C5.52727 11.1633 5.52727 11.1394 5.52727 11.1156C5.52727 11.0917 5.52727 11.0679 5.52727 11.0679V11.044C5.50303 10.9725 5.47879 10.9725 5.45455 10.9725V11.044V11.211L5.4303 11.0679V10.9725H5.45455C5.45455 10.9486 5.45455 10.9248 5.4303 10.9248C5.40606 10.9009 5.38182 10.8532 5.35758 10.8532C5.33333 10.8532 5.28485 10.7817 5.28485 10.7578L5.26061 10.7101C5.26061 10.7101 5.23636 10.6862 5.26061 10.6862C5.26061 10.6624 5.26061 10.6385 5.26061 10.6147C5.26061 10.6385 5.23636 10.6385 5.21212 10.6385C5.18788 10.6385 5.18788 10.6385 5.18788 10.6147C5.18788 10.5908 5.16364 10.5908 5.16364 10.567C5.13939 10.5431 5.11515 10.5193 5.11515 10.4954L5.09091 10.5193C5.09091 10.5193 5.06667 10.5193 5.06667 10.5431C5.04242 10.5431 5.04242 10.567 5.01818 10.567C4.99394 10.567 4.9697 10.567 4.94545 10.567C4.92121 10.5193 4.92121 10.4477 4.92121 10.4V10.2569C4.89697 10.2569 4.89697 10.3284 4.87273 10.3284C4.84848 10.3284 4.92121 10.3284 4.92121 10.3284L4.89697 10.3523C4.89697 10.3523 4.89697 10.3761 4.89697 10.3523C4.87273 10.3523 4.87273 10.3284 4.87273 10.3284C4.82424 10.3284 4.84848 10.3284 4.84848 10.3284C4.84848 10.3284 4.70303 10.3046 4.70303 10.2569H4.8C4.72727 10.233 4.67879 10.1615 4.70303 10.0661C4.70303 10.0183 4.70303 9.97064 4.70303 9.92294L4.77576 9.89908H4.8L4.82424 9.87523C4.82424 9.87523 4.84848 9.85138 4.87273 9.87523V9.85138H4.84848V9.82752C4.84848 9.80367 4.84848 9.75596 4.82424 9.73211C4.82424 9.70826 4.8 9.6844 4.8 9.66055C4.8 9.6367 4.8 9.6367 4.77576 9.6367H4.75152C4.72727 9.61284 4.72727 9.58899 4.75152 9.56514L4.77576 9.54128C4.89697 9.49358 4.99394 9.37431 4.99394 9.23119C4.99394 9.20734 4.99394 9.18349 5.01818 9.15963C5.01818 9.13578 5.01818 9.13578 5.01818 9.11193C5.01818 9.08807 5.01818 9.08807 5.01818 9.06422C5.01818 9.04037 5.04242 9.04037 5.04242 9.01651V8.99266C5.04242 8.99266 5.06667 8.96881 5.09091 8.96881C5.11515 8.96881 5.16364 8.89725 5.16364 8.87339C5.16364 8.87339 5.13939 8.84954 5.13939 8.82569C5.13939 8.80184 5.13939 8.75413 5.13939 8.73028C5.13939 8.68257 5.13939 8.65872 5.13939 8.61101C5.13939 8.58716 5.13939 8.53945 5.13939 8.5156L5.11515 8.49174L5.09091 8.53945C5.06667 8.5156 5.06667 8.46789 5.09091 8.44404C5.09091 8.42018 5.09091 8.39633 5.09091 8.39633C5.09091 8.37248 5.11515 8.34862 5.11515 8.34862C5.11515 8.34862 5.13939 8.34862 5.13939 8.32477C5.13939 8.30092 5.13939 8.30092 5.13939 8.27706C5.13939 8.27706 5.13939 8.27706 5.13939 8.25321V8.22936C5.13939 8.2055 5.13939 8.20551 5.11515 8.20551C5.09091 8.20551 5.06667 8.1578 5.06667 8.13394C5.04242 8.13394 5.04242 8.13394 5.01818 8.13394C4.99394 8.13394 4.99394 8.13394 4.99394 8.11009C4.99394 8.08624 4.99394 8.06239 4.99394 8.03853C4.99394 8.03853 4.99394 8.03853 4.99394 8.01468C4.99394 7.99083 4.99394 7.96697 5.01818 7.94312C5.04242 7.87156 5.06667 7.8 5.11515 7.72844V7.70459C5.13939 7.68073 5.16364 7.63303 5.21212 7.63303V7.65688L5.23636 7.60917C5.23636 7.58532 5.23636 7.58532 5.26061 7.56147C5.26061 7.53761 5.28485 7.51376 5.30909 7.48991C5.33333 7.46605 5.33333 7.4422 5.35758 7.3945C5.35758 7.37064 5.38182 7.34679 5.38182 7.34679L5.40606 7.32294C5.4303 7.29908 5.47879 7.27523 5.50303 7.25138C5.52727 7.22752 5.57576 7.20367 5.62424 7.17982C5.64849 7.15596 5.67273 7.13211 5.67273 7.0844C5.67273 7.01284 5.69697 6.96514 5.74545 6.91743C5.74545 6.89358 5.7697 6.89358 5.7697 6.86972L5.79394 6.84587V6.82202C5.81818 6.75046 5.86667 6.72661 5.91515 6.72661H5.93939L6.01212 6.6789L6.03636 6.65505C6.06061 6.58349 6.10909 6.51193 6.15758 6.44037L6.18182 6.41651C6.20606 6.34495 6.27879 6.34495 6.30303 6.34495H6.32727C6.44848 6.34495 6.54545 6.29725 6.64242 6.22569C6.66667 6.20184 6.69091 6.20183 6.71515 6.17798H6.73939C6.83636 6.13028 6.93333 6.05872 6.98182 5.9633L7.0303 5.89174C7.05455 5.86789 7.05455 5.84404 7.0303 5.84404C7.00606 5.79633 7.00606 5.77248 7.0303 5.72477C7.0303 5.70092 7.0303 5.70092 7.0303 5.67706C7.0303 5.6055 7.05455 5.5578 7.10303 5.51009L7.2 5.41468C7.2 5.39083 7.22424 5.36697 7.22424 5.34312V5.31927C7.24849 5.27156 7.27273 5.24771 7.29697 5.22385C7.32121 5.22385 7.32121 5.2 7.34545 5.17615C7.41818 5.10459 7.49091 5.08073 7.58788 5.05688L7.66061 5.03303L7.68485 5.00917C7.70909 4.98532 7.73333 4.98532 7.75758 4.98532C7.73333 4.96147 7.73333 4.91376 7.75758 4.88991H7.78182C7.80606 4.8422 7.8303 4.81835 7.85455 4.7945C7.87879 4.74679 7.90303 4.72294 7.92727 4.67523C7.95152 4.62752 8 4.57982 8.02424 4.53211C8.02424 4.50826 8.04848 4.50826 8.07273 4.50826H8.12121C8.14545 4.50826 8.1697 4.50826 8.19394 4.50826C8.24242 4.50826 8.24242 4.55596 8.24242 4.57982V4.60367L8.29091 4.67523L8.31515 4.69908C8.36364 4.69908 8.38788 4.69908 8.43636 4.69908H8.50909C8.53333 4.69908 8.55758 4.69908 8.58182 4.72294H8.60606C8.6303 4.72294 8.6303 4.72294 8.6303 4.69908C8.6303 4.67523 8.65455 4.67523 8.67879 4.67523C8.70303 4.67523 8.72727 4.69908 8.72727 4.72294C8.72727 4.77064 8.75152 4.77064 8.8 4.77064C8.82424 4.77064 8.84848 4.77064 8.84848 4.77064C8.87273 4.77064 8.89697 4.77064 8.92121 4.77064L8.94546 4.74679C8.9697 4.72294 8.9697 4.72294 8.99394 4.72294H8.9697C8.9697 4.72294 8.9697 4.69908 8.99394 4.69908L9.01818 4.67523C9.04243 4.65138 9.06667 4.67523 9.09091 4.67523C9.11515 4.67523 9.09091 4.69908 9.09091 4.69908L9.26061 4.67523C9.33333 4.65138 9.38182 4.62752 9.45455 4.60367C9.45455 4.60367 9.35758 4.60367 9.38182 4.62752C9.40606 4.65138 9.30909 4.62752 9.33333 4.62752H9.30909V4.60367C9.30909 4.60367 9.30909 4.57982 9.33333 4.57982C9.35758 4.57982 9.33333 4.57982 9.35758 4.57982C9.35758 4.57982 9.38182 4.55596 9.40606 4.55596C9.4303 4.55596 9.4303 4.53211 9.45455 4.53211L9.47879 4.50826C9.50303 4.4844 9.52727 4.4844 9.55152 4.50826C9.6 4.50826 9.62424 4.50826 9.67273 4.50826C9.72121 4.50826 9.7697 4.50826 9.84242 4.50826C9.86667 4.46055 9.89091 4.4367 9.93939 4.46055H9.96364C9.98788 4.46055 10.0121 4.46055 10.0364 4.46055H10.0606C10.1333 4.46055 10.2303 4.46055 10.303 4.4844C10.3273 4.4844 10.3273 4.4844 10.3273 4.4844C10.3273 4.4844 10.3515 4.4844 10.3515 4.50826L10.3758 4.53211H10.4C10.4 4.50826 10.4242 4.50826 10.4485 4.50826C10.4727 4.50826 10.497 4.50826 10.497 4.50826H10.5212L10.5455 4.4844L10.5697 4.46055C10.5939 4.4367 10.6424 4.46055 10.6667 4.4844H10.6909H10.7394C10.7394 4.46055 10.7394 4.46055 10.7636 4.46055C10.7879 4.46055 10.8121 4.46055 10.8364 4.46055H10.8606C10.8848 4.46055 10.9091 4.46055 10.9333 4.46055C10.9333 4.46055 10.9576 4.46055 10.9576 4.4844C10.9818 4.4844 11.0061 4.4844 11.0303 4.4844C11.0788 4.4844 11.1273 4.4844 11.1515 4.46055C11.2242 4.41284 11.3212 4.41284 11.3939 4.4367C11.4424 4.4367 11.4182 4.4844 11.4182 4.50826L11.4424 4.53211C11.4424 4.53211 11.4424 4.62752 11.4424 4.65138C11.4424 4.67523 11.4667 4.74679 11.4909 4.74679C11.4667 4.69908 11.4667 4.65138 11.4909 4.60367C11.4909 4.60367 11.5152 4.53211 11.5394 4.55596C11.5636 4.57982 11.5394 4.53211 11.5636 4.53211C11.5879 4.53211 11.6121 4.53211 11.6121 4.55596C11.6364 4.57982 11.6121 4.62752 11.5879 4.65138L11.5636 4.67523C11.5394 4.69908 11.5152 4.72294 11.4909 4.74679V4.77064C11.4909 4.7945 11.4909 4.7945 11.5152 4.7945C11.5636 4.81835 11.5879 4.86606 11.5879 4.91376C11.5879 4.96147 11.5879 5.00917 11.5636 5.05688C11.5152 5.12844 11.4667 5.17615 11.3939 5.2C11.3697 5.22385 11.3697 5.22385 11.3697 5.22385C11.3697 5.22385 11.3939 5.27156 11.4182 5.27156V5.24771C11.4182 5.22385 11.4667 5.2 11.4909 5.2C11.5152 5.2 11.5394 5.22385 11.5394 5.27156C11.5394 5.29541 11.5394 5.31927 11.5394 5.34312C11.5394 5.36697 11.5394 5.39083 11.5394 5.39083C11.5394 5.41468 11.5636 5.41468 11.6121 5.41468H11.6364C11.6848 5.41468 11.7091 5.43853 11.7576 5.46239C11.8061 5.48624 11.8545 5.51009 11.903 5.48624C11.9515 5.46239 12 5.46239 12.0485 5.48624C12.0727 5.48624 12.097 5.48624 12.1212 5.48624C12.1697 5.48624 12.1939 5.51009 12.2424 5.53395C12.2667 5.5578 12.2909 5.5578 12.3152 5.5578H12.3394H12.3879C12.4606 5.5578 12.4848 5.62936 12.4848 5.65321C12.5091 5.79633 12.5576 5.84404 12.703 5.84404C12.8 5.84404 12.9212 5.89174 13.0182 5.93945C13.0667 5.9633 13.1152 5.98716 13.1636 6.03486C13.2606 6.10642 13.3091 6.08257 13.4061 5.98716C13.4303 5.93945 13.4545 5.9156 13.4061 5.86789C13.3576 5.77248 13.3818 5.65321 13.4788 5.6055C13.5515 5.5578 13.6242 5.51009 13.7212 5.48624C13.7939 5.46239 13.8909 5.46239 13.9636 5.46239C13.9879 5.46239 14.0121 5.48624 14.0364 5.48624C14.0606 5.48624 14.0848 5.51009 14.1091 5.51009C14.1576 5.51009 14.1576 5.5578 14.1576 5.5578C14.1576 5.58165 14.1818 5.6055 14.2061 5.6055C14.2545 5.6055 14.303 5.6055 14.3273 5.62936C14.3515 5.62936 14.3758 5.62936 14.4 5.62936C14.497 5.6055 14.5212 5.62936 14.5697 5.72477C14.5697 5.74862 14.5697 5.74862 14.6182 5.74862C14.6667 5.72477 14.7394 5.72477 14.7879 5.74862H14.8606C14.9091 5.74862 14.9818 5.77248 15.0303 5.79633C15.0545 5.79633 15.0788 5.82018 15.103 5.82018C15.1273 5.82018 15.1515 5.84404 15.1758 5.84404C15.2 5.84404 15.2 5.84404 15.2242 5.84404H15.2727C15.3212 5.84404 15.3697 5.86789 15.3939 5.89174C15.4424 5.9156 15.4667 5.89174 15.5152 5.84404L15.5394 5.82018C15.6121 5.77248 15.7091 5.72477 15.8061 5.70092C15.8303 5.70092 15.8545 5.70092 15.8788 5.70092H15.903C15.9273 5.72477 15.9515 5.72477 15.9758 5.70092C16 5.70092 16 5.70092 16.0242 5.70092C16.0242 5.70092 16.0485 5.70092 16.0485 5.72477C16.0727 5.74862 16.0727 5.74862 16.097 5.77248C16.1212 5.77248 16.1455 5.79633 16.1697 5.82018C16.1697 5.82018 16.1939 5.82018 16.1939 5.79633L16.2182 5.77248C16.2424 5.74862 16.2909 5.74862 16.3394 5.77248C16.3394 5.77248 16.3636 5.77248 16.3879 5.77248C16.4121 5.77248 16.4606 5.74862 16.4606 5.74862C16.4606 5.74862 16.5576 5.74862 16.5333 5.74862C16.5091 5.74862 16.4848 5.74862 16.4606 5.77248C16.4364 5.79633 16.5333 5.79633 16.5091 5.79633C16.4848 5.79633 16.5818 5.79633 16.5818 5.79633C16.5818 5.84404 16.703 5.9156 16.7273 5.9633C16.8242 6.05872 16.8727 6.20183 16.8727 6.3211V6.34495C16.6303 6.41651 16.7758 6.48807 16.7758 6.55963C16.7758 6.60734 16.7515 6.63119 16.703 6.65505C16.6788 6.6789 16.6303 6.6789 16.5818 6.65505C16.5818 6.6789 16.5818 6.6789 16.5818 6.70275C16.6061 6.72661 16.6303 6.75046 16.6303 6.77431C16.6303 6.82202 16.6545 6.84587 16.6788 6.89358C16.703 6.91743 16.703 6.94128 16.703 6.96514C16.7515 7.01284 16.8 7.0844 16.8242 7.15596C16.8485 7.17982 16.8727 7.22752 16.897 7.25138L16.9212 7.27523C16.9455 7.34679 16.9939 7.3945 17.0667 7.41835C17.0909 7.41835 17.0909 7.4422 17.0909 7.4422C17.1152 7.46606 17.0909 7.48991 17.0909 7.51376C16.9939 7.51376 16.9212 7.51376 16.8242 7.51376C16.8242 7.53761 16.6061 7.53761 16.6061 7.56147V7.58532C16.6061 7.60917 16.8242 7.60917 16.8242 7.63303C16.8242 7.65688 16.9697 7.70459 16.9939 7.70459C17.0182 7.70459 17.0424 7.70459 17.0667 7.70459L16.9697 7.87156C17.0182 7.89541 17.0667 7.91927 17.1152 7.94312C17.1394 7.96697 17.1636 7.99083 17.2121 7.99083C17.2364 7.99083 17.2606 8.03853 17.2606 8.06239C17.2606 8.13394 17.2848 8.18165 17.3333 8.22936C17.3576 8.25321 17.3576 8.25321 17.3576 8.27706C17.3576 8.34862 17.3576 8.42018 17.3818 8.49174C17.3818 8.53945 17.4061 8.58716 17.4061 8.61101C17.4061 8.65872 17.4303 8.68257 17.4303 8.73028C17.4303 8.73028 17.4303 8.75413 17.4303 8.77798C17.4303 8.80184 17.4545 8.80184 17.4788 8.80184C17.5273 8.80184 17.5758 8.84954 17.6 8.87339C17.6 8.89725 17.6242 8.9211 17.6485 8.9211C17.7455 8.96881 17.8182 9.06422 17.8424 9.18349C17.8667 9.25505 17.8909 9.35046 17.9152 9.42202C17.9152 9.44587 17.9394 9.46972 17.9636 9.49358C17.9879 9.51743 17.9879 9.54128 18.0121 9.56514C18.0121 9.58899 18.0364 9.58899 18.0606 9.58899C18.1091 9.58899 18.1818 9.61284 18.2061 9.66055C18.2303 9.66055 18.2545 9.6844 18.2788 9.70826C18.303 9.73211 18.3273 9.73211 18.3758 9.75596C18.4242 9.77982 18.4727 9.80367 18.497 9.87523C18.5212 9.89908 18.5455 9.92294 18.5697 9.94679C18.5939 9.97064 18.6182 9.97064 18.6424 10.0183V10.0422C18.6667 10.0422 18.6667 10.0661 18.6667 10.0899C18.6909 10.1376 18.7152 10.1615 18.7636 10.1615C18.8606 10.2092 18.9091 10.3046 18.9333 10.4C18.9333 10.4239 18.9091 10.4716 18.8848 10.4716C18.8606 10.4716 18.8606 10.4716 18.8606 10.4954H18.8848C18.9333 10.5193 18.9576 10.5431 18.9818 10.5908V10.6147C19.0303 10.6862 19.103 10.7339 19.1758 10.7578C19.2242 10.7578 19.297 10.7578 19.3455 10.7101C19.3697 10.6862 19.4182 10.6624 19.4424 10.6624C19.4909 10.6385 19.5394 10.6624 19.5879 10.6862C19.6121 10.7101 19.6364 10.6862 19.6606 10.6862C19.6848 10.6862 19.7333 10.6385 19.7576 10.6385L19.8061 10.5908C19.8303 10.567 19.8545 10.567 19.8788 10.5908C19.9273 10.6147 19.9758 10.5908 20 10.567C20.0485 10.5193 20.1212 10.5193 20.1697 10.5431C20.2182 10.567 20.2667 10.567 20.3152 10.5431C20.3636 10.5193 20.3879 10.5193 20.4364 10.4954C20.4848 10.4954 20.5091 10.4716 20.5576 10.4477C20.5818 10.4239 20.6061 10.3761 20.6545 10.3761C20.703 10.3761 20.7273 10.3761 20.7758 10.4C20.8 10.4239 20.8242 10.4716 20.8 10.5193C20.7758 10.567 20.7758 10.6147 20.8 10.6624C20.8 10.6862 20.8 10.7101 20.8 10.7339C20.8242 10.7339 20.8242 10.7339 20.8485 10.7578C20.8242 10.7101 20.8485 10.7339 20.8485 10.7339Z" fill="white"/>
</svg>
