<svg width="48" height="48" viewBox="0 0 48 48" fill="none" xmlns="http://www.w3.org/2000/svg">
<circle cx="24" cy="24" r="24" fill="#132957"/>
<path d="M33.0148 19.7319C33.903 19.0658 34.7023 18.2665 35.324 17.3339C34.5247 17.6891 33.5921 17.9556 32.6596 18.0444C33.6365 17.4671 34.3471 16.579 34.7023 15.4688C33.8142 16.0016 32.7928 16.4013 31.7714 16.6234C30.8832 15.6908 29.6842 15.1579 28.352 15.1579C25.7763 15.1579 23.6892 17.2451 23.6892 19.8207C23.6892 20.176 23.7336 20.5313 23.8224 20.8865C19.9589 20.6645 16.4951 18.7993 14.1859 16.0016C13.7862 16.6678 13.5642 17.4671 13.5642 18.3553C13.5642 19.954 14.3635 21.375 15.6513 22.2188C14.8964 22.1743 14.1415 21.9967 13.5197 21.6415V21.6859C13.5197 23.9507 15.1184 25.8158 17.25 26.2599C16.8947 26.3487 16.4507 26.4375 16.051 26.4375C15.7401 26.4375 15.4737 26.3931 15.1628 26.3487C15.7401 28.2138 17.4721 29.5461 19.5148 29.5905C17.9161 30.8339 15.9178 31.5888 13.7418 31.5888C13.3421 31.5888 12.9869 31.5444 12.6316 31.5C14.6744 32.8322 17.1168 33.5872 19.7813 33.5872C28.352 33.5872 33.0148 26.5263 33.0148 20.3536C33.0148 20.1316 33.0148 19.954 33.0148 19.7319Z" fill="#F5F4FA"/>
</svg>
